<?xml version="1.0" encoding="utf-8"?>
<!-- Generator: Adobe Illustrator 27.5.0, SVG Export Plug-In . SVG Version: 6.00 Build 0)  -->
<svg version="1.1" id="Layer_1" xmlns="http://www.w3.org/2000/svg" xmlns:xlink="http://www.w3.org/1999/xlink" x="0px" y="0px"
	 viewBox="0 0 297.6 283.5" style="enable-background:new 0 0 297.6 283.5;" xml:space="preserve">
<style type="text/css">
	.st0{fill:#ffffff;}
</style>
<g>
	<g>
		<path class="st0" d="M34,273.8L0,55.9c0,0,104.2-7.2,148.8,52.7c0,0,26.6-53,148.8-53l-33.9,218.2l-57.9,15.4l2.6-74.6l-55.2,66.3
			c-3.4,4.4-5.8,4.3-9.4,0.1l-54.5-64.4l3.9,72.7L34,273.8z"/>
		<path class="st0" d="M0,29.5L16.2,6.1c0,0,116.6-11,132.6,95.1C148.8,101.1,104.7,29.5,0,29.5z"/>
		<path class="st0" d="M297.7,29.5L281.4,6.1c0,0-116.6-11-132.6,95.1C148.8,101.1,193,29.5,297.7,29.5z"/>
	</g>
</g>
</svg>
